<?xml version="1.0" encoding="utf-8"?>
<!-- Generator: Adobe Illustrator 19.0.1, SVG Export Plug-In . SVG Version: 6.00 Build 0)  -->
<svg version="1.1" id="Capa_1" xmlns="http://www.w3.org/2000/svg" xmlns:xlink="http://www.w3.org/1999/xlink" x="0px" y="0px"
	 viewBox="-28.8 300.4 300.7 192.7" style="enable-background:new -28.8 300.4 300.7 192.7;" xml:space="preserve">
<style type="text/css">
	.st0{fill:none;}
</style>
<g>
	<g id="Sign_Out">
		<path d="M268.5,405.3l-83,84.2c-4.7,4.8-12.3,4.8-17,0c-4.7-4.7-4.7-12.4,0-17.2l62.6-63.5H121.6v-24.3H231l-62.6-63.5
			c-4.7-4.7-4.7-12.4,0-17.2c4.7-4.7,12.3-4.8,17,0l83,84.2C273.2,392.8,273.1,400.6,268.5,405.3z"/>
	</g>
</g>
<path d="M121.6,384.6v24.3H-16.7c-6.6,0-12-5.4-12-12.2s5.4-12.1,12-12.1H121.6z"/>
<path class="st0" d="M121.6,246.1c-83,0-150.4,67.3-150.4,150.4v0.2c0.1,82.9,67.4,150.1,150.4,150.1"/>
<path class="st0" d="M272,396.5c0,83-67.3,150.4-150.4,150.4c-83,0-150.2-67.2-150.4-150.1v-0.2c0-83,67.3-150.4,150.4-150.4
	S272,313.5,272,396.5z"/>
</svg>
